<?xml version="1.0" encoding="UTF-8"?>
<svg width="1200" height="630" viewBox="0 0 1200 630" fill="none" xmlns="http://www.w3.org/2000/svg">
  <!-- Background -->
  <rect width="1200" height="630" fill="#F8FAFC"/>
  
  <!-- Gradient overlay -->
  <rect width="1200" height="630" fill="url(#gradient)"/>
  
  <!-- Logo -->
  <g transform="translate(100, 215)">
    <rect width="80" height="80" rx="16" fill="#4F46E5"/>
    <path d="M20 15C20 13.8954 20.8954 13 22 13H58C59.1046 13 60 13.8954 60 15V65C60 66.1046 59.1046 67 58 67H22C20.8954 67 20 66.1046 20 65V15Z" fill="white"/>
    <rect x="27" y="25" width="25" height="5" rx="2.5" fill="#4F46E5"/>
    <rect x="27" y="37" width="25" height="5" rx="2.5" fill="#4F46E5"/>
    <rect x="27" y="49" width="15" height="5" rx="2.5" fill="#4F46E5"/>
  </g>
  
  <!-- Text -->
  <text x="200" y="250" font-family="Inter, sans-serif" font-size="72" font-weight="700" fill="#1E293B">
    Resume Reviewer
  </text>
  <text x="200" y="320" font-family="Inter, sans-serif" font-size="36" font-weight="400" fill="#64748B">
    AI-Powered Resume Analysis
  </text>
  
  <!-- Definitions -->
  <defs>
    <linearGradient id="gradient" x1="0" y1="0" x2="1200" y2="630" gradientUnits="userSpaceOnUse">
      <stop offset="0%" stop-color="#F8FAFC"/>
      <stop offset="100%" stop-color="#E2E8F0"/>
    </linearGradient>
  </defs>
</svg> 